{"title":"Special.Ops.2010.720p.BRRip.x264.Feel-Free","uid":6075605,"size":1755289116,"categoryP":"video","categoryS":"hd___movies","magnet":"?xt=urn:btih:c8c824462fb9bc1821ae5059e563dd007260939d&amp;dn=Special.Ops.2010.720p.BRRip.x264.Feel-Free&amp;tr=udp%3A%2F%2Ftracker.openbittorrent.com%3A80&amp;tr=udp%3A%2F%2Fopen.demonii.com%3A1337&amp;tr=udp%3A%2F%2Ftracker.coppersurfer.tk%3A6969&amp;tr=udp%3A%2F%2Fexodus.desync.com%3A6969","seeders":0,"leechers":0,"uploader":"neon","files":-1,"time":1293819346,"description":"Genre:Action\nLanguage:English\n &lt;a href=&quot; http://www.imdb.com/title/tt1237373/&quot; rel=&quot;nofollow&quot; target=&quot;_NEW&quot;&gt; http://www.imdb.com/title/tt1237373/&lt;/a&gt;\nSource:BluRay.x264-aAF\n\n\nFormat : Matroska\nFile size : 1.63 GiB\nDuration : 1h 38mn\nOverall bit rate : 2 366 Kbps\n\n\nVideo\nFormat settings, CABAC : Yes\nFormat settings, ReFrames : 4 frames\nCodec ID : V_MPEG4/ISO/AVC\nDuration : 1h 38mn\nBit rate : 2 095 Kbps\nNominal bit rate : 2 200 Kbps\nWidth : 1 280 pixels\nHeight : 720 pixels\nDisplay aspect ratio : 16:9\nFrame rate mode : Variable\nFrame rate : 23.976 fps\nColor space : YUV\nChroma subsampling : 4:2:0\nBit depth : 8 bits\nScan type : Progressive\nBits/(Pixel*Frame) : 0.095\nStream size : 1.44 GiB (89%)\nWriting library : x264\n\nAudio\nID : 2\nFormat : AC-3\nFormat/Info : Audio Coding 3\nMode extension : CM (complete main)\nCodec ID : A_AC3\nDuration : 1h 38mn\nBit rate mode : Constant\nBit rate : 224 Kbps\nChannel(s) : 6 channels\nChannel positions : Front: L C R, Side: L R, LFE\nSampling rate : 48.0 KHz\nBit depth : 16 bits\nVideo delay : -42ms\nStream size : 158 MiB (9%)\nLanguage : English\n\n\nPlot:\nHunted by terrorists and betrayed by the country he defends. A story about a true American patriot.\n","torrent":{"xt":"urn:btih:c8c824462fb9bc1821ae5059e563dd007260939d","amp;dn":"Special.Ops.2010.720p.BRRip.x264.Feel-Free","amp;tr":["udp%3A%2F%2Ftracker.openbittorrent.com%3A80","udp%3A%2F%2Fopen.demonii.com%3A1337","udp%3A%2F%2Ftracker.coppersurfer.tk%3A6969","udp%3A%2F%2Fexodus.desync.com%3A6969"],"infoHash":"c8c824462fb9bc1821ae5059e563dd007260939d","infoHashBuffer":{"type":"Buffer","data":[200,200,36,70,47,185,188,24,33,174,80,89,229,99,221,0,114,96,147,157]},"announce":[],"urlList":[]}}